<svg width="103" height="29" viewBox="0 0 103 29" fill="none" xmlns="http://www.w3.org/2000/svg">
<path d="M26.744 5.72H41.048V10.76H39.8L39.032 7.16H35.096V21.392L37.64 21.968V23H30.152V21.968L32.696 21.392V7.16H28.736L27.992 10.76H26.744V5.72ZM49.8849 11.432C49.7409 11.336 49.5809 11.288 49.4049 11.288C49.1009 11.288 48.7809 11.48 48.4449 11.864C48.1089 12.232 47.8129 12.704 47.5569 13.28C47.0769 14.416 46.8369 15.68 46.8369 17.072V21.56L49.4289 22.016V23H42.6609V22.016L44.5089 21.56V11.48L42.6609 11.024V10.04H46.1169L46.6449 13.208H46.7409C47.1089 12.12 47.6049 11.28 48.2289 10.688C48.8529 10.096 49.5409 9.8 50.2929 9.8C50.9169 9.8 51.4369 10 51.8529 10.4C52.2689 10.784 52.4769 11.304 52.4769 11.96C52.4769 12.44 52.3489 12.824 52.0929 13.112C51.8529 13.384 51.5249 13.52 51.1089 13.52C50.6929 13.52 50.3649 13.392 50.1249 13.136C49.8849 12.864 49.7649 12.512 49.7649 12.08C49.7649 11.92 49.8049 11.704 49.8849 11.432ZM53.7011 20.192C53.7011 18.944 54.2851 17.96 55.4531 17.24C56.6211 16.52 58.5571 15.96 61.2611 15.56C61.1971 14.616 61.1091 13.88 60.9971 13.352C60.8851 12.824 60.7411 12.4 60.5651 12.08C60.3411 11.664 60.0291 11.36 59.6291 11.168C59.2291 10.96 58.7971 10.856 58.3331 10.856C57.8851 10.856 57.4771 10.936 57.1091 11.096C56.7571 11.256 56.5171 11.472 56.3891 11.744C56.6131 11.904 56.7731 12.112 56.8691 12.368C56.9811 12.624 57.0371 12.864 57.0371 13.088C57.0371 13.488 56.9011 13.808 56.6291 14.048C56.3731 14.272 56.0531 14.384 55.6691 14.384C55.2851 14.384 54.9651 14.256 54.7091 14C54.4691 13.744 54.3491 13.384 54.3491 12.92C54.3491 12.248 54.5811 11.68 55.0451 11.216C55.5091 10.752 56.0931 10.4 56.7971 10.16C57.5171 9.92 58.2371 9.8 58.9571 9.8C60.3171 9.8 61.3891 10.192 62.1731 10.976C63.1651 11.968 63.6611 13.728 63.6611 16.256V19.736C63.6611 20.52 63.7091 21.064 63.8051 21.368C63.9171 21.672 64.1491 21.824 64.5011 21.824H65.5811V22.544C64.4291 23.008 63.5331 23.24 62.8931 23.24C62.3971 23.24 62.0611 23.064 61.8851 22.712C61.7251 22.344 61.6451 21.648 61.6451 20.624H61.5491C61.0531 21.44 60.3971 22.08 59.5811 22.544C58.7651 23.008 57.8851 23.24 56.9411 23.24C55.9331 23.24 55.1411 22.968 54.5651 22.424C53.9891 21.88 53.7011 21.136 53.7011 20.192ZM57.9491 21.848C58.3971 21.848 58.8611 21.736 59.3411 21.512C59.8371 21.272 60.2531 20.944 60.5891 20.528C61.0851 19.92 61.3331 19.024 61.3331 17.84C61.3331 17.568 61.3251 17.304 61.3091 17.048C61.2931 16.776 61.2691 16.52 61.2371 16.28C59.9411 16.536 58.9251 16.816 58.1891 17.12C57.4531 17.408 56.9331 17.76 56.6291 18.176C56.3251 18.576 56.1731 19.08 56.1731 19.688C56.1731 20.376 56.3251 20.912 56.6291 21.296C56.9491 21.664 57.3891 21.848 57.9491 21.848ZM66.1117 11.24V10.376L68.4397 10.04V9.8C68.4397 8.024 68.9597 6.624 69.9997 5.6C71.0397 4.56 72.4477 4.04 74.2237 4.04C75.4557 4.04 76.4477 4.288 77.1997 4.784C77.9517 5.264 78.3277 5.912 78.3277 6.728C78.3277 7.624 77.9037 8.072 77.0557 8.072C76.2557 8.072 75.8557 7.672 75.8557 6.872C75.8557 6.488 75.9837 6.072 76.2397 5.624C75.6957 5.176 74.9917 4.952 74.1277 4.952C73.5357 4.952 73.0157 5.032 72.5677 5.192C71.9117 5.416 71.4477 5.808 71.1757 6.368C70.9037 6.912 70.7677 7.736 70.7677 8.84V10.04H78.3037V21.56L80.1517 22.016V23H74.3677V22.016L75.9757 21.56V11.24H70.7677V21.56L72.6397 22.016V23H66.5917V22.016L68.4397 21.56V11.24H66.1117ZM83.27 21.56V5.72L81.422 5.264V4.28H85.598V21.56L87.446 22.016V23H81.422V22.016L83.27 21.56ZM100.997 16.4C100.997 17.44 100.837 18.432 100.517 19.376C100.213 20.304 99.7808 21.072 99.2208 21.68C98.2768 22.72 96.8848 23.24 95.0448 23.24C94.1648 23.24 93.3808 23.12 92.6928 22.88C92.0048 22.624 91.4208 22.24 90.9408 21.728C90.3968 21.136 89.9728 20.408 89.6688 19.544C89.3808 18.664 89.2368 17.712 89.2368 16.688C89.2368 15.648 89.3888 14.656 89.6928 13.712C89.9968 12.752 90.4368 11.968 91.0128 11.36C91.5248 10.816 92.1168 10.424 92.7888 10.184C93.4768 9.928 94.2608 9.8 95.1408 9.8C96.0208 9.8 96.8128 9.928 97.5168 10.184C98.2208 10.424 98.8128 10.8 99.2928 11.312C99.8528 11.904 100.277 12.648 100.565 13.544C100.853 14.424 100.997 15.376 100.997 16.4ZM91.8048 16.424C91.8048 17.4 91.8768 18.248 92.0208 18.968C92.1808 19.672 92.3968 20.256 92.6688 20.72C92.9408 21.12 93.2608 21.432 93.6288 21.656C94.0128 21.88 94.5088 21.992 95.1168 21.992C96.2208 21.992 97.0448 21.616 97.5888 20.864C97.8768 20.448 98.0848 19.872 98.2128 19.136C98.3568 18.4 98.4288 17.552 98.4288 16.592C98.4288 15.632 98.3488 14.792 98.1888 14.072C98.0448 13.352 97.8368 12.768 97.5648 12.32C97.3088 11.904 96.9808 11.592 96.5808 11.384C96.1968 11.16 95.7008 11.048 95.0928 11.048C93.9728 11.048 93.1648 11.416 92.6688 12.152C92.0928 13.048 91.8048 14.472 91.8048 16.424Z" fill="#334147"/>
<path d="M17.5595 9.65353H15.2186V8.93579H14.1944V1.21255H15.4865V0H4.51663V1.21255H5.8046V8.93579H4.78038V9.65353H2.43842C1.7923 9.65545 1.17317 9.91684 0.716291 10.3806C0.259408 10.8443 0.00189521 11.4728 0 12.1286V21.2123C0.00189521 21.8682 0.259408 22.4966 0.716291 22.9604C1.17317 23.4241 1.7923 23.6855 2.43842 23.6874H3.14553C3.14553 23.8598 3.17897 24.0305 3.24396 24.1897C3.30894 24.349 3.40419 24.4937 3.52427 24.6156C3.64434 24.7374 3.78689 24.8341 3.94378 24.9001C4.10067 24.966 4.26882 25 4.43863 25C4.60844 25 4.77659 24.966 4.93348 24.9001C5.09036 24.8341 5.23292 24.7374 5.35299 24.6156C5.47307 24.4937 5.56832 24.349 5.6333 24.1897C5.69829 24.0305 5.73173 23.8598 5.73173 23.6874H14.2436C14.2436 23.8598 14.2771 24.0305 14.3421 24.1897C14.4071 24.349 14.5023 24.4937 14.6224 24.6156C14.7425 24.7374 14.885 24.8341 15.0419 24.9001C15.1988 24.966 15.3669 25 15.5367 25C15.7066 25 15.8747 24.966 16.0316 24.9001C16.1885 24.8341 16.331 24.7374 16.4511 24.6156C16.5712 24.4937 16.6664 24.349 16.7314 24.1897C16.7964 24.0305 16.8298 23.8598 16.8298 23.6874H17.5616C18.2077 23.6855 18.8268 23.4241 19.2837 22.9604C19.7406 22.4966 19.9981 21.8682 20 21.2123V12.1286C19.9981 11.4728 19.7406 10.8443 19.2837 10.3806C18.8268 9.91684 18.2077 9.65545 17.5616 9.65353H17.5595ZM6.21921 1.21255H13.7787V8.93579H12.7545V9.65353H7.24343V8.93579H6.21921V1.21255ZM3.87828 20.0258L2.05357 17.9705L7.44253 13.0443L9.27135 15.0985L3.87828 20.0258ZM11.3413 11.5609H14.2672V14.3339H11.3413V11.5609ZM15.0482 21.2884C14.5079 21.2884 13.9797 21.1257 13.5305 20.821C13.0812 20.5163 12.731 20.0833 12.5243 19.5765C12.3175 19.0698 12.2634 18.5123 12.3688 17.9744C12.4742 17.4364 12.7344 16.9423 13.1165 16.5545C13.4985 16.1667 13.9853 15.9026 14.5153 15.7956C15.0452 15.6886 15.5945 15.7435 16.0937 15.9534C16.5929 16.1633 17.0196 16.5187 17.3198 16.9747C17.6199 17.4308 17.7802 17.9669 17.7802 18.5154V18.5206C17.7799 19.2545 17.4925 19.9584 16.9812 20.4774C16.4699 20.9964 15.7765 21.2881 15.0534 21.2884H15.0482Z" fill="#FF6333"/>
</svg>
